# xmcd CD database file
#
# Track frame offsets:
#	150
#	27391
#	56821
#	80786
#	118900
#	138677
#	163454
#	190423
#	213869
#	242636
#
# Disc length: 3550 seconds
#
# Revision: 0
# Processed by: cddbd v1.5.1PL0 Copyright (c) Steve Scherf et al.
# Submitted via: CDex 1.51
#
DISCID=9d0ddc0a
DTITLE=THE RESIDUES - Whatever
DYEAR=2004
DGENRE=Rock
TTITLE0=People Are Stupid
TTITLE1=One Day
TTITLE2=Nosy Neighbor
TTITLE3=As The Years Go Passing By
TTITLE4=NIH Blues
TTITLE5=Whatever
TTITLE6=G-Wiz
TTITLE7=I'm Ready
TTITLE8=Come Together
TTITLE9=Gypsy Jam
EXTD=YEAR: 2004
EXTT0=
EXTT1=
EXTT2=
EXTT3=
EXTT4=
EXTT5=
EXTT6=
EXTT7=
EXTT8=
EXTT9=
PLAYORDER=
